<svg width="64" height="64" viewBox="0 0 64 64" fill="none" xmlns="http://www.w3.org/2000/svg">
<path d="M63.874 57.01C63.8747 57.9116 63.6977 58.8045 63.3531 59.6377C63.0086 60.4708 62.5033 61.228 61.866 61.8658C61.2288 62.5036 60.4721 63.0096 59.6392 63.3548C58.8064 63.7001 57.9136 63.8779 57.012 63.878H7.06703C6.16564 63.8775 5.27318 63.6994 4.4406 63.354C3.60802 63.0086 2.85163 62.5025 2.21462 61.8648C1.57761 61.227 1.07246 60.47 0.727992 59.6371C0.383529 58.8041 0.206507 57.9114 0.207032 57.01V7.07301C0.206767 5.25318 0.929302 3.50775 2.21574 2.22055C3.50219 0.933363 5.2472 0.20981 7.06703 0.209015H57.011C57.9123 0.209015 58.8048 0.386572 59.6375 0.731545C60.4701 1.07652 61.2267 1.58215 61.8639 2.21956C62.5011 2.85696 63.0065 3.61366 63.3513 4.44643C63.696 5.27919 63.8733 6.17172 63.873 7.07301V57.01" fill="#E6E7E8"/>
<path d="M9.52501 4.35199V59.502V4.35199ZM15.976 4.35199V59.502V4.35199ZM22.427 4.35199V59.502V4.35199ZM28.878 4.35199V59.502V4.35199ZM35.33 4.35199V59.502V4.35199ZM41.78 4.35199V59.502V4.35199ZM48.23 4.35199V59.502V4.35199ZM54.681 4.35199V59.502V4.35199ZM4.28101 54.704H59.431H4.28101ZM4.28101 48.25H59.431H4.28101ZM4.28101 41.802H59.431H4.28101ZM4.28101 35.35H59.431H4.28101ZM4.28101 28.9H59.431H4.28101ZM4.28101 22.449H59.431H4.28101ZM4.28101 15.999H59.431H4.28101ZM4.28101 9.54799H59.431H4.28101Z" stroke="#000055" stroke-opacity="0.221" stroke-width="0.4" stroke-linecap="round"/>
<path d="M12.303 55.3C15.987 50.141 19.674 44.98 23.353 39.821L19.457 39.895C24.616 45.053 29.775 50.214 34.934 55.374C36.202 56.644 38.324 56.412 39.098 54.781C45.731 40.781 52.365 26.771 58.998 12.771C60.2 10.23 55.452 8.64999 54.241 11.203C47.608 25.203 40.974 39.213 34.342 53.213L38.505 52.62C33.346 47.462 28.187 42.301 23.028 37.141C22.015 36.128 20.036 35.949 19.13 37.215C15.446 42.374 11.759 47.535 8.06997 52.694C6.35297 55.099 10.685 57.553 12.295 55.3" fill="#3696EE"/>
</svg>
