<svg width="176" height="135" viewBox="0 0 176 135" fill="none" xmlns="http://www.w3.org/2000/svg">
<path opacity="0.34" d="M168.875 134.506H6.707C3.0005 134.506 0 131.48 0 127.742C0 124.004 3.0005 120.978 6.707 120.978H168.84C172.546 120.978 175.547 124.004 175.547 127.742C175.582 131.48 172.582 134.506 168.875 134.506Z" fill="#353535"/>
<path d="M42.8895 78.472V7.272C42.8895 4.9224 44.7957 3 47.1255 3H124.785C127.115 3 129.021 4.9224 129.021 7.272V78.472C129.021 80.8216 127.115 82.744 124.785 82.744H47.1255C44.7604 82.744 42.8895 80.8216 42.8895 78.472Z" fill="#070707"/>
<path d="M45.7135 75.1612V8.23319C45.7135 7.23639 46.4901 6.45319 47.4785 6.45319H124.433C125.421 6.45319 126.198 7.23639 126.198 8.23319V75.1612C126.198 76.158 125.421 76.9412 124.433 76.9412H47.4785C46.4901 76.9412 45.7135 76.1224 45.7135 75.1612Z" fill="#CDCDCD"/>
<path d="M42.8895 78.472V7.272C42.8895 4.9224 44.7957 3 47.1255 3H124.785C127.115 3 129.021 4.9224 129.021 7.272V78.472C129.021 80.8216 127.115 82.744 124.785 82.744H47.1255C44.7604 82.744 42.8895 80.8216 42.8895 78.472Z" stroke="#3A3842" stroke-width="6" stroke-miterlimit="10" stroke-linecap="round" stroke-linejoin="round"/>
<path d="M49.2435 65.1932V13.2172C49.2435 11.8288 50.3378 10.7252 51.7145 10.7252H120.197C121.573 10.7252 122.668 11.8288 122.668 13.2172V65.1932C122.668 66.5816 121.573 67.6852 120.197 67.6852H51.7145C50.3378 67.6852 49.2435 66.5816 49.2435 65.1932Z" fill="#070707"/>
<path d="M59.4805 64.4812C55.2092 64.4812 51.7145 60.9568 51.7145 56.6492V21.7612C51.7145 17.4536 55.2092 13.9292 59.4805 13.9292H112.431C116.702 13.9292 120.197 17.4536 120.197 21.7612V56.6492C120.197 60.9568 116.702 64.4812 112.431 64.4812H59.4805Z" fill="#3A3842"/>
<path d="M113.843 89.152H58.0685C56.5153 89.152 55.2445 87.8704 55.2445 86.304V82.744H116.667V86.304C116.667 87.8704 115.396 89.152 113.843 89.152Z" fill="#070707"/>
<path d="M116.667 82.744H55.2445V85.948H116.667V82.744Z" fill="#CDCDCD"/>
<path d="M113.843 89.152H58.0685C56.5153 89.152 55.2445 87.8704 55.2445 86.304V82.744H116.667V86.304C116.667 87.8704 115.396 89.152 113.843 89.152Z" stroke="#3A3842" stroke-width="6" stroke-miterlimit="10" stroke-linecap="round" stroke-linejoin="round"/>
<path d="M146.671 123.328H25.2395C23.6863 123.328 22.4155 122.046 22.4155 120.48V92C22.4155 90.4336 23.6863 89.152 25.2395 89.152H146.671C148.225 89.152 149.495 90.4336 149.495 92V120.48C149.495 122.046 148.225 123.328 146.671 123.328Z" fill="#070707"/>
<path d="M146.671 123.328H25.2395C23.6863 123.328 22.4155 122.046 22.4155 120.48V92C22.4155 90.4336 23.6863 89.152 25.2395 89.152H146.671C148.225 89.152 149.495 90.4336 149.495 92V120.48C149.495 122.046 148.225 123.328 146.671 123.328Z" stroke="#3A3842" stroke-width="6" stroke-miterlimit="10" stroke-linecap="round" stroke-linejoin="round"/>
<path d="M26.7927 117.632V94.848C26.7927 93.2816 28.0635 92 29.6167 92H142.259C143.812 92 145.083 93.2816 145.083 94.848V117.632C145.083 119.198 143.812 120.48 142.259 120.48H29.6167C28.0635 120.48 26.7927 119.198 26.7927 117.632Z" fill="#CDCDCD"/>
<path d="M110.736 74.8408C112.198 74.8408 113.384 73.6453 113.384 72.1708C113.384 70.6962 112.198 69.5008 110.736 69.5008C109.274 69.5008 108.089 70.6962 108.089 72.1708C108.089 73.6453 109.274 74.8408 110.736 74.8408Z" fill="#CAB5EA"/>
<path d="M110.736 74.4848C112.003 74.4848 113.031 73.4489 113.031 72.1708C113.031 70.8928 112.003 69.8568 110.736 69.8568C109.469 69.8568 108.442 70.8928 108.442 72.1708C108.442 73.4489 109.469 74.4848 110.736 74.4848Z" fill="#3A3842"/>
<path d="M110.736 74.1644C111.828 74.1644 112.713 73.2719 112.713 72.1708C112.713 71.0697 111.828 70.1772 110.736 70.1772C109.645 70.1772 108.759 71.0697 108.759 72.1708C108.759 73.2719 109.645 74.1644 110.736 74.1644Z" fill="#33313A"/>
<path d="M64.9167 108.198V117.988" stroke="#070707" stroke-width="6" stroke-miterlimit="10" stroke-linecap="round" stroke-linejoin="round"/>
<path d="M61.3867 108.198V117.988" stroke="#070707" stroke-width="6" stroke-miterlimit="10" stroke-linecap="round" stroke-linejoin="round"/>
<path d="M57.8567 108.198V117.988" stroke="#070707" stroke-width="6" stroke-miterlimit="10" stroke-linecap="round" stroke-linejoin="round"/>
<path d="M54.3267 108.198V117.988" stroke="#070707" stroke-width="6" stroke-miterlimit="10" stroke-linecap="round" stroke-linejoin="round"/>
<path d="M50.7967 108.198V117.988" stroke="#070707" stroke-width="6" stroke-miterlimit="10" stroke-linecap="round" stroke-linejoin="round"/>
<path d="M47.2667 108.198V117.988" stroke="#070707" stroke-width="6" stroke-miterlimit="10" stroke-linecap="round" stroke-linejoin="round"/>
<path d="M43.7367 108.198V117.988" stroke="#070707" stroke-width="6" stroke-miterlimit="10" stroke-linecap="round" stroke-linejoin="round"/>
<path d="M40.2067 108.198V117.988" stroke="#070707" stroke-width="6" stroke-miterlimit="10" stroke-linecap="round" stroke-linejoin="round"/>
<path d="M36.6767 108.198V117.988" stroke="#070707" stroke-width="6" stroke-miterlimit="10" stroke-linecap="round" stroke-linejoin="round"/>
<path d="M65.2344 108.198V117.988" stroke="#3A3842" stroke-width="4" stroke-miterlimit="10" stroke-linecap="round" stroke-linejoin="round"/>
<path d="M61.7044 108.198V117.988" stroke="#3A3842" stroke-width="4" stroke-miterlimit="10" stroke-linecap="round" stroke-linejoin="round"/>
<path d="M58.1744 108.198V117.988" stroke="#3A3842" stroke-width="4" stroke-miterlimit="10" stroke-linecap="round" stroke-linejoin="round"/>
<path d="M54.6444 108.198V117.988" stroke="#3A3842" stroke-width="4" stroke-miterlimit="10" stroke-linecap="round" stroke-linejoin="round"/>
<path d="M51.1144 108.198V117.988" stroke="#3A3842" stroke-width="4" stroke-miterlimit="10" stroke-linecap="round" stroke-linejoin="round"/>
<path d="M47.5844 108.198V117.988" stroke="#3A3842" stroke-width="4" stroke-miterlimit="10" stroke-linecap="round" stroke-linejoin="round"/>
<path d="M44.0544 108.198V117.988" stroke="#3A3842" stroke-width="4" stroke-miterlimit="10" stroke-linecap="round" stroke-linejoin="round"/>
<path d="M40.5244 108.198V117.988" stroke="#3A3842" stroke-width="4" stroke-miterlimit="10" stroke-linecap="round" stroke-linejoin="round"/>
<path d="M36.9944 108.198V117.988" stroke="#3A3842" stroke-width="4" stroke-miterlimit="10" stroke-linecap="round" stroke-linejoin="round"/>
<path d="M37.5239 96.4144H35.1235V98.8352H37.5239V96.4144Z" fill="#F26640"/>
<path d="M40.4185 96.4144H38.0181V98.8352H40.4185V96.4144Z" fill="#5EB755"/>
<path d="M37.5239 99.2268H35.1235V101.648H37.5239V99.2268Z" fill="#6A82EA"/>
<path d="M40.4185 99.2268H38.0181V101.648H40.4185V99.2268Z" fill="#EFAD43"/>
<path d="M71.9061 19.732H91.427" stroke="white" stroke-width="8" stroke-miterlimit="10" stroke-linecap="round" stroke-linejoin="round"/>
<path d="M60.6101 19.732H66.2581" stroke="white" stroke-width="8" stroke-miterlimit="10" stroke-linecap="round" stroke-linejoin="round"/>
<path d="M112.431 13.9292H109.748C108.089 36.6776 89.2737 54.62 66.2934 54.62H51.7145V56.6492C51.7145 60.9568 55.2092 64.4812 59.4805 64.4812H112.431C116.702 64.4812 120.197 60.9568 120.197 56.6492V21.7612C120.197 17.4536 116.702 13.9292 112.431 13.9292Z" fill="#33313A"/>
<path opacity="0.34" d="M50.3378 97.5892H41.5834V98.8708H50.3378V97.5892Z" fill="#3A3842"/>
<path opacity="0.34" d="M45.9606 99.7964H41.5834V100.473H45.9606V99.7964Z" fill="#3A3842"/>
<path d="M87.7911 118.237H51.0791V122.509H87.7911V118.237Z" fill="#996E73"/>
<path d="M36.3237 118.237H29.2637V122.509H36.3237V118.237Z" fill="#996E73"/>
<path d="M47.2314 118.237H40.1714V122.509H47.2314V118.237Z" fill="#996E73"/>
<path d="M98.6988 118.237H91.6388V122.509H98.6988V118.237Z" fill="#996E73"/>
<path d="M109.607 118.237H102.546V122.509H109.607V118.237Z" fill="#996E73"/>
<path d="M120.549 118.237H113.49V122.509H120.549V118.237Z" fill="#996E73"/>
<path d="M87.7911 118.237H51.0791V122.509H87.7911V118.237Z" stroke="#3A3842" stroke-width="6" stroke-miterlimit="10" stroke-linecap="round" stroke-linejoin="round"/>
<path d="M36.3237 118.237H29.2637V122.509H36.3237V118.237Z" stroke="#3A3842" stroke-width="6" stroke-miterlimit="10" stroke-linecap="round" stroke-linejoin="round"/>
<path d="M47.2314 118.237H40.1714V122.509H47.2314V118.237Z" stroke="#3A3842" stroke-width="6" stroke-miterlimit="10" stroke-linecap="round" stroke-linejoin="round"/>
<path d="M98.6988 118.237H91.6388V122.509H98.6988V118.237Z" stroke="#3A3842" stroke-width="6" stroke-miterlimit="10" stroke-linecap="round" stroke-linejoin="round"/>
<path d="M109.607 118.237H102.546V122.509H109.607V118.237Z" stroke="#3A3842" stroke-width="6" stroke-miterlimit="10" stroke-linecap="round" stroke-linejoin="round"/>
<path d="M120.549 118.237H113.49V122.509H120.549V118.237Z" stroke="#3A3842" stroke-width="6" stroke-miterlimit="10" stroke-linecap="round" stroke-linejoin="round"/>
<path d="M127.256 128.917H22.7685C21.9919 128.917 21.3565 128.276 21.3565 127.493V123.933C21.3565 123.15 21.9919 122.509 22.7685 122.509H127.256C128.033 122.509 128.668 123.15 128.668 123.933V127.493C128.668 128.276 128.033 128.917 127.256 128.917Z" fill="#CDCDCD"/>
<path d="M127.256 128.917H22.7685C21.9919 128.917 21.3565 128.276 21.3565 127.493V123.933C21.3565 123.15 21.9919 122.509 22.7685 122.509H127.256C128.033 122.509 128.668 123.15 128.668 123.933V127.493C128.668 128.276 128.033 128.917 127.256 128.917Z" stroke="#3A3842" stroke-width="6" stroke-miterlimit="10" stroke-linecap="round" stroke-linejoin="round"/>
<path d="M149.954 128.917H136.787V127.208C136.787 124.61 138.87 122.509 141.447 122.509H145.33C147.907 122.509 149.99 124.61 149.99 127.208V128.917H149.954Z" fill="#CDCDCD"/>
<path d="M149.954 128.917H136.787V127.208C136.787 124.61 138.87 122.509 141.447 122.509H145.33C147.907 122.509 149.99 124.61 149.99 127.208V128.917H149.954Z" stroke="#3A3842" stroke-width="6" stroke-miterlimit="10" stroke-linecap="round" stroke-linejoin="round"/>
<path d="M136.293 103.641H104.064C103.817 103.641 103.57 103.428 103.57 103.143V100.295C103.57 100.046 103.782 99.7964 104.064 99.7964H136.293C136.54 99.7964 136.787 100.01 136.787 100.295V103.143C136.787 103.428 136.576 103.641 136.293 103.641Z" fill="#070707"/>
<path d="M124.362 105.065H115.996C115.749 105.065 115.572 104.852 115.572 104.638V98.8352C115.572 98.586 115.784 98.408 115.996 98.408H124.362C124.609 98.408 124.785 98.6216 124.785 98.8352V104.638C124.821 104.887 124.609 105.065 124.362 105.065Z" fill="#070707"/>
<path d="M135.375 100.295H105.018V103.143H135.375V100.295Z" fill="#3A3842"/>
<path d="M124.433 99.2268H115.961V104.211H124.433V99.2268Z" fill="#3A3842"/>
<path d="M105.723 101.719C105.723 101.327 106.041 101.007 106.429 101.007H133.963C134.352 101.007 134.669 101.327 134.669 101.719C134.669 102.11 134.352 102.431 133.963 102.431H106.429C106.041 102.431 105.723 102.11 105.723 101.719Z" fill="#33313A"/>
<path d="M136.293 112.648H104.064C103.817 112.648 103.57 112.434 103.57 112.15V109.302C103.57 109.052 103.782 108.803 104.064 108.803H136.293C136.54 108.803 136.787 109.017 136.787 109.302V112.15C136.787 112.434 136.576 112.648 136.293 112.648Z" fill="#070707"/>
<path d="M124.362 114.108H115.996C115.749 114.108 115.572 113.894 115.572 113.68V107.878C115.572 107.628 115.784 107.45 115.996 107.45H124.362C124.609 107.45 124.785 107.664 124.785 107.878V113.68C124.821 113.894 124.609 114.108 124.362 114.108Z" fill="#070707"/>
<path d="M135.375 109.337H105.018V112.185H135.375V109.337Z" fill="#3A3842"/>
<path d="M124.433 108.269H115.961V113.253H124.433V108.269Z" fill="#3A3842"/>
<path d="M105.723 110.761C105.723 110.37 106.041 110.049 106.429 110.049H133.963C134.352 110.049 134.669 110.37 134.669 110.761C134.669 111.153 134.352 111.473 133.963 111.473H106.429C106.041 111.473 105.723 111.153 105.723 110.761Z" fill="#33313A"/>
</svg>
