<svg width="480" height="496" viewBox="0 0 480 496" fill="none" xmlns="http://www.w3.org/2000/svg">
<path d="M272 256C272 273.7 257.7 288 240 288C222.3 288 208 273.7 208 256V32C208 14.33 222.3 0 240 0C257.7 0 272 14.33 272 32V256ZM64 256C64 353.2 142.8 432 240 432C337.2 432 416 353.2 416 256C416 201.6 391.3 152.9 352.5 120.6C338.9 109.3 337 89.13 348.3 75.54C359.6 61.95 379.8 60.1 393.4 71.4C446.2 115.4 480 181.8 480 255.1C480 388.5 372.5 496 240 496C107.5 496 0 388.5 0 255.1C0 181.8 33.75 115.4 86.6 71.4C100.2 60.1 120.4 61.95 131.7 75.54C142.1 89.13 141.1 109.3 127.5 120.6C88.7 152.9 64 201.6 64 256Z" fill="#E40000"/>
</svg>
