<svg width="53" height="62" viewBox="0 0 53 62" fill="none" xmlns="http://www.w3.org/2000/svg">
<path d="M15.9946 2.14215C16.6335 0.82925 17.9467 0 19.3781 0H33.6219C35.0534 0 36.3665 0.82925 37.0054 2.14215L37.8571 3.875H49.2143C51.3083 3.875 53 5.61027 53 7.75C53 9.88973 51.3083 11.625 49.2143 11.625H3.78571C1.69529 11.625 0 9.88973 0 7.75C0 5.61027 1.69529 3.875 3.78571 3.875H15.1429L15.9946 2.14215ZM3.67924 15.5H49.2143V54.25C49.2143 58.5246 45.819 62 41.6429 62H11.2507C7.17511 62 3.67924 58.5246 3.67924 54.25V15.5ZM13.1435 25.1875V52.3125C13.1435 53.3781 14.1018 54.25 15.0364 54.25C16.1839 54.25 16.9292 53.3781 16.9292 52.3125V25.1875C16.9292 24.1219 16.1839 23.25 15.0364 23.25C14.1018 23.25 13.1435 24.1219 13.1435 25.1875ZM24.5007 25.1875V52.3125C24.5007 53.3781 25.4589 54.25 26.3935 54.25C27.5411 54.25 28.3929 53.3781 28.3929 52.3125V25.1875C28.3929 24.1219 27.5411 23.25 26.3935 23.25C25.4589 23.25 24.5007 24.1219 24.5007 25.1875ZM35.9643 25.1875V52.3125C35.9643 53.3781 36.8161 54.25 37.8571 54.25C38.8982 54.25 39.75 53.3781 39.75 52.3125V25.1875C39.75 24.1219 38.8982 23.25 37.8571 23.25C36.8161 23.25 35.9643 24.1219 35.9643 25.1875Z" fill="#F24E1E"/>
</svg>
